<svg xmlns="http://www.w3.org/2000/svg" width="276" height="263" viewBox="0 0 276 263">
  <g fill="none">
    <path fill="#E91E63" d="M28.8699645,0.214389846 C33.1751189,0.214389846 36.5996222,0.900266213 39.1435771,2.27203952 C42.2093689,3.91816749 44.5739068,6.1815595 46.237262,9.06228345 C47.9006171,11.9430074 48.7322822,15.1666263 48.7322822,18.7332369 C48.7322822,22.0940815 47.8843099,25.1976721 46.18834,28.0441017 C44.4923701,30.8905313 42.1767536,33.1367764 39.241421,34.7829044 C42.7638201,36.086089 45.7317229,38.3494811 48.1452186,41.5731483 C50.5587142,44.7968156 51.765444,48.4319604 51.765444,52.4786916 C51.765444,56.0453022 50.9011646,59.3203619 49.1725798,62.3039688 C47.4439951,65.2875758 45.1446858,67.6367023 42.2745828,69.351419 C40.8395313,70.174483 39.2414298,70.7917717 37.4802303,71.2033037 C35.7190307,71.6148357 33.3707999,71.8205986 30.4354673,71.8205986 L0.299537025,71.8205986 L0.299537025,0.214389846 L28.8699645,0.214389846 Z"/>
    <path fill="#FFF" d="M98.2669158,0.214389846 L102.085578,0.214389846 L130.089104,71.8096732 L126.172527,71.8096732 L116.968571,48.1503123 L83.3839234,48.1503123 L74.0820531,71.8096732 L70.2633906,71.8096732 L98.2669158,0.214389846 Z M84.8526398,44.447108 L115.499854,44.447108 L100.12729,5.15199559 L84.8526398,44.447108 Z M187.369042,2.58032593 C191.285638,4.50051555 194.369912,7.34646818 196.621955,11.1182692 C198.873998,14.8900702 200.000002,19.0732777 200.000002,23.6680171 C200.000002,29.0171168 198.449706,33.8003745 195.349067,38.0179338 C192.248428,42.2354932 188.282934,45.0300129 183.452465,46.4015769 L200.783318,71.8096732 L196.475083,71.8096732 L179.731717,47.1216444 L176.598455,47.2245112 L152.021935,47.2245112 L152.021935,71.8096732 L148.399101,71.8096732 L148.399101,0.214389846 L174.346423,0.214389846 C177.218594,0.214389846 179.682749,0.402977069 181.738962,0.780157172 C183.795175,1.15733727 185.67185,1.75738753 187.369042,2.58032593 Z M177.577599,43.4184401 C180.971983,43.4184401 184.105213,42.5269369 186.977384,40.7439037 C189.849555,38.9608705 192.134202,36.5606695 193.831394,33.5432286 C195.528585,30.5257878 196.377169,27.2340836 196.377169,23.6680171 C196.377169,19.6904815 195.381715,16.09018 193.390779,12.8670046 C191.399842,9.64382915 188.641947,7.24362814 185.11701,5.66632953 C182.571222,4.56907832 178.981062,4.02046094 174.346423,4.02046094 L152.021935,4.02046094 L152.021935,43.4184401 L177.577599,43.4184401 Z M4.26906888,139.084551 C4.26906888,143.610713 5.36243568,147.79392 7.54920208,151.634299 C9.73596848,155.474679 12.6733718,158.526363 16.3615002,160.789443 C20.0496286,163.052524 24.047761,164.184047 28.3560172,164.184047 C32.7948266,164.184047 36.8092778,163.258256 40.3994913,161.406644 C43.9897048,159.555033 46.8128758,156.983389 48.869089,153.691635 C50.9253022,150.399882 51.9860311,146.696714 52.0513077,142.582022 L55.576227,142.582022 C55.576227,147.313918 54.3849468,151.617136 52.0023505,155.491804 C49.6197543,159.366472 46.3559728,162.418156 42.2109081,164.646948 C38.0658435,166.875739 33.4475927,167.990118 28.3560172,167.990118 C23.3949949,167.990118 18.793063,166.687152 14.5500834,164.081181 C10.3071038,161.475209 6.94540887,157.960629 4.46489773,153.537335 C1.98438659,149.114041 0.744149622,144.296495 0.744149622,139.084551 L0.744149622,122.214399 C0.744149622,117.002455 1.96806768,112.184909 4.41594052,107.761615 C6.86381335,103.338321 10.1928705,99.823741 14.4032118,97.2177694 C18.613553,94.6117978 23.199166,93.3088315 28.1601883,93.3088315 C33.1864872,93.3088315 37.7721002,94.4232106 41.9171649,96.6520021 C46.0622295,98.8807936 49.3423299,101.932478 51.7575645,105.807146 C54.172799,109.681814 55.3803982,113.985032 55.3803982,118.716928 L51.8554789,118.716928 C51.7902023,114.602236 50.7131544,110.899068 48.6243029,107.607315 C46.5354514,104.315561 43.7122804,101.743917 40.1547052,99.8923059 C36.5971301,98.0406945 32.5989977,97.1149026 28.1601883,97.1149026 C23.8519321,97.1149026 19.8701187,98.246426 16.2146286,100.509507 C12.5591385,102.772587 9.65437297,105.824271 7.50024487,109.664651 C5.34611677,113.50503 4.26906888,117.688237 4.26906888,122.214399 L4.26906888,139.084551 Z M98.2669158,94.8518333 L102.085578,94.8518333 L130.089104,166.447117 L126.172527,166.447117 L116.968571,142.787756 L83.3839234,142.787756 L74.0820531,166.447117 L70.2633906,166.447117 L98.2669158,94.8518333 Z M84.8526398,139.084551 L115.499854,139.084551 L100.12729,99.7894391 L84.8526398,139.084551 Z M148.692844,166.447117 L145.07001,166.447117 L145.07001,94.8518333 L148.986587,94.8518333 L172.779792,138.981685 L196.475083,94.8518333 L200.097917,94.8518333 L200.097917,166.447117 L196.475083,166.447117 L196.475083,102.463976 L174.444338,143.30209 L171.017333,143.30209 L148.692844,101.949642 L148.692844,166.447117 Z M226.045239,166.447117 L222.422405,166.447117 L222.422405,94.8518333 L249.838444,94.8518333 C254.407807,94.8518333 258.634404,95.8804909 262.518362,97.9378369 C266.40232,99.9951829 269.486594,102.909713 271.771275,106.681514 C274.055956,110.453315 275.19828,114.807965 275.19828,119.745596 C275.19828,124.477491 274.039637,128.832142 271.722318,132.809678 C269.404998,136.787213 266.255449,139.838897 262.273576,141.964822 C258.813916,143.816433 254.668913,144.742225 249.838444,144.742225 L226.045239,144.742225 L226.045239,166.447117 Z M226.045239,140.936154 L249.838444,140.936154 C254.016147,140.936154 257.443118,140.250382 260.119459,138.878818 C263.579119,137.164363 266.353333,134.592719 268.442185,131.163809 C270.531036,127.734899 271.575446,123.928866 271.575446,119.745596 C271.575446,115.630904 270.531036,111.859159 268.442185,108.430249 C266.353333,105.001339 263.546481,102.429695 260.021544,100.71524 C257.345203,99.3436762 253.95087,98.6579044 249.838444,98.6579044 L226.045239,98.6579044 L226.045239,140.936154 Z M28.5616375,191.752346 C24.1881046,191.752346 20.1246967,192.901014 16.3712917,195.198383 C12.6178867,197.495753 9.63152659,200.616015 7.41212189,204.559261 C5.19271718,208.502508 4.08303148,212.805725 4.08303148,217.469043 L4.08303148,231.047459 C4.08303148,235.916511 4.73578777,239.928275 6.04131995,243.082873 C7.86906501,247.540456 10.6432793,251.175046 14.364046,253.986752 C18.0848127,256.798458 22.262453,258.375733 26.8970922,258.718624 L26.8970922,225.286918 L56.7609915,225.286918 L56.7609915,232.076126 C56.7609915,236.465131 56.1408731,240.37403 54.9006175,243.80294 C52.8770426,249.494931 49.4827098,254.055313 44.7175174,257.484223 C39.9523249,260.913133 34.5670855,262.627562 28.5616375,262.627562 C22.8825725,262.627562 17.7094788,260.998854 13.0422013,257.74139 C8.37492372,254.483925 4.96427206,250.146419 2.81014397,244.728741 C1.24350535,240.888362 0.460197792,236.32798 0.460197792,231.047459 L0.460197792,217.469043 C0.460197792,212.119943 1.71675367,207.182387 4.22990311,202.656225 C6.74305256,198.130064 10.1537042,194.546907 14.4619604,191.906646 C18.7702166,189.266386 23.470062,187.946275 28.5616375,187.946275 C32.804617,187.946275 36.688517,188.68348 40.2134539,190.157911 C43.7383908,191.632342 46.7410698,193.775379 49.2215809,196.587085 C51.2451558,198.918744 52.8933654,201.524676 54.1662593,204.404961 C55.4391532,207.285245 56.0755906,210.199775 56.0755906,213.148638 L52.5506713,213.148638 C52.4853947,210.611244 51.8815951,208.108178 50.7392545,205.639362 C49.5969138,203.170547 48.144531,200.941789 46.3820626,198.953021 C42.0085298,194.152547 36.0684475,191.752346 28.5616375,191.752346 Z M53.1381578,228.990123 L30.4220115,228.990123 L30.4220115,258.718624 C35.1219274,258.375733 39.3485244,256.815602 43.1019294,254.038185 C46.8553344,251.260768 49.6132298,247.574745 51.3756982,242.980006 C52.5506772,239.75683 53.1381578,236.12224 53.1381578,232.076126 L53.1381578,228.990123 Z"/>
    <polygon fill="#9C27B0" points="73.879 260.912 73.879 189.306 77.706 189.306 125.391 237.97 125.391 189.306 129.021 189.306 129.021 260.912"/>
    <path fill="#FFF" d="M145.468794,189.735014 L209.596948,189.735014 L177.532871,262.627562 L145.468794,189.735014 Z M177.532871,253.6057 L204.024837,193.528297 L151.138662,193.528297 L177.532871,253.6057 Z"/>
  </g>
</svg>
