<svg xmlns="http://www.w3.org/2000/svg" width="218" height="199" viewBox="0 0 218 199">
  <path fill="#EDF2F6" fill-rule="evenodd" d="M-56.2479728,169.5 C-56.6630918,169.5 -57,169.164 -57,168.75 C-57,168.336 -56.6630918,168 -56.2479728,168 L-34.7520272,168 C-34.3369082,168 -34,168.336 -34,168.75 C-34,169.164 -34.3369082,169.5 -34.7520272,169.5 L-56.2479728,169.5 Z M15.2482172,168 C15.6632013,168 16,168.336 16,168.75 C16,169.164 15.6632013,169.5 15.2482172,169.5 L-18.2482172,169.5 C-18.6632013,169.5 -19,169.164 -19,168.75 C-19,168.336 -18.6632013,168 -18.2482172,168 L15.2482172,168 Z M167.248802,168 C167.662112,168 168,168.336 168,168.75 C168,169.164 167.662112,169.5 167.245785,169.5 L32.7542147,169.5 C32.3378882,169.5 32,169.164 32,168.75 C32,168.336 32.3378882,168 32.7542147,168 L167.248802,168 Z M217.25015,168 C217.661068,168 218,168.336 218,168.75 C218,169.164 217.664067,169.5 217.25015,169.5 L183.74985,169.5 C183.332933,169.5 183,169.164 183,168.75 C183,168.336 183.332933,168 183.74985,168 L217.25015,168 Z M-56.2479728,198.5 C-56.6630918,198.5 -57,198.164 -57,197.75 C-57,197.336 -56.6630918,197 -56.2479728,197 L-34.7520272,197 C-34.3369082,197 -34,197.336 -34,197.75 C-34,198.164 -34.3369082,198.5 -34.7520272,198.5 L-56.2479728,198.5 Z M15.2482172,197 C15.6632013,197 16,197.336 16,197.75 C16,198.164 15.6632013,198.5 15.2482172,198.5 L-18.2482172,198.5 C-18.6632013,198.5 -19,198.164 -19,197.75 C-19,197.336 -18.6632013,197 -18.2482172,197 L15.2482172,197 Z M167.248802,197 C167.662112,197 168,197.336 168,197.75 C168,198.164 167.662112,198.5 167.245785,198.5 L32.7542147,198.5 C32.3378882,198.5 32,198.164 32,197.75 C32,197.336 32.3378882,197 32.7542147,197 L167.248802,197 Z M217.25015,197 C217.661068,197 218,197.336 218,197.75 C218,198.164 217.664067,198.5 217.25015,198.5 L183.74985,198.5 C183.332933,198.5 183,198.164 183,197.75 C183,197.336 183.332933,197 183.74985,197 L217.25015,197 Z M-56.2479728,226.5 C-56.6630918,226.5 -57,226.164 -57,225.75 C-57,225.336 -56.6630918,225 -56.2479728,225 L-34.7520272,225 C-34.3369082,225 -34,225.336 -34,225.75 C-34,226.164 -34.3369082,226.5 -34.7520272,226.5 L-56.2479728,226.5 Z M15.2482172,225 C15.6632013,225 16,225.336 16,225.75 C16,226.164 15.6632013,226.5 15.2482172,226.5 L-18.2482172,226.5 C-18.6632013,226.5 -19,226.164 -19,225.75 C-19,225.336 -18.6632013,225 -18.2482172,225 L15.2482172,225 Z M167.248802,225 C167.662112,225 168,225.336 168,225.75 C168,226.164 167.662112,226.5 167.245785,226.5 L32.7542147,226.5 C32.3378882,226.5 32,226.164 32,225.75 C32,225.336 32.3378882,225 32.7542147,225 L167.248802,225 Z M217.25015,225 C217.661068,225 218,225.336 218,225.75 C218,226.164 217.664067,226.5 217.25015,226.5 L183.74985,226.5 C183.332933,226.5 183,226.164 183,225.75 C183,225.336 183.332933,225 183.74985,225 L217.25015,225 Z M-56.2479728,254.5 C-56.6630918,254.5 -57,254.164 -57,253.75 C-57,253.336 -56.6630918,253 -56.2479728,253 L-34.7520272,253 C-34.3369082,253 -34,253.336 -34,253.75 C-34,254.164 -34.3369082,254.5 -34.7520272,254.5 L-56.2479728,254.5 Z M15.2482172,253 C15.6632013,253 16,253.336 16,253.75 C16,254.164 15.6632013,254.5 15.2482172,254.5 L-18.2482172,254.5 C-18.6632013,254.5 -19,254.164 -19,253.75 C-19,253.336 -18.6632013,253 -18.2482172,253 L15.2482172,253 Z M167.248802,253 C167.662112,253 168,253.336 168,253.75 C168,254.164 167.662112,254.5 167.245785,254.5 L32.7542147,254.5 C32.3378882,254.5 32,254.164 32,253.75 C32,253.336 32.3378882,253 32.7542147,253 L167.248802,253 Z M217.25015,253 C217.661068,253 218,253.336 218,253.75 C218,254.164 217.664067,254.5 217.25015,254.5 L183.74985,254.5 C183.332933,254.5 183,254.164 183,253.75 C183,253.336 183.332933,253 183.74985,253 L217.25015,253 Z M-56.2479728,282.5 C-56.6630918,282.5 -57,282.164 -57,281.75 C-57,281.336 -56.6630918,281 -56.2479728,281 L-34.7520272,281 C-34.3369082,281 -34,281.336 -34,281.75 C-34,282.164 -34.3369082,282.5 -34.7520272,282.5 L-56.2479728,282.5 Z M15.2482172,281 C15.6632013,281 16,281.336 16,281.75 C16,282.164 15.6632013,282.5 15.2482172,282.5 L-18.2482172,282.5 C-18.6632013,282.5 -19,282.164 -19,281.75 C-19,281.336 -18.6632013,281 -18.2482172,281 L15.2482172,281 Z M167.248802,281 C167.662112,281 168,281.336 168,281.75 C168,282.164 167.662112,282.5 167.245785,282.5 L32.7542147,282.5 C32.3378882,282.5 32,282.164 32,281.75 C32,281.336 32.3378882,281 32.7542147,281 L167.248802,281 Z M217.25015,281 C217.661068,281 218,281.336 218,281.75 C218,282.164 217.664067,282.5 217.25015,282.5 L183.74985,282.5 C183.332933,282.5 183,282.164 183,281.75 C183,281.336 183.332933,281 183.74985,281 L217.25015,281 Z M-56.2479728,310.5 C-56.6630918,310.5 -57,310.164 -57,309.75 C-57,309.336 -56.6630918,309 -56.2479728,309 L-34.7520272,309 C-34.3369082,309 -34,309.336 -34,309.75 C-34,310.164 -34.3369082,310.5 -34.7520272,310.5 L-56.2479728,310.5 Z M15.2482172,309 C15.6632013,309 16,309.336 16,309.75 C16,310.164 15.6632013,310.5 15.2482172,310.5 L-18.2482172,310.5 C-18.6632013,310.5 -19,310.164 -19,309.75 C-19,309.336 -18.6632013,309 -18.2482172,309 L15.2482172,309 Z M167.248802,309 C167.662112,309 168,309.336 168,309.75 C168,310.164 167.662112,310.5 167.245785,310.5 L32.7542147,310.5 C32.3378882,310.5 32,310.164 32,309.75 C32,309.336 32.3378882,309 32.7542147,309 L167.248802,309 Z M217.25015,309 C217.661068,309 218,309.336 218,309.75 C218,310.164 217.664067,310.5 217.25015,310.5 L183.74985,310.5 C183.332933,310.5 183,310.164 183,309.75 C183,309.336 183.332933,309 183.74985,309 L217.25015,309 Z M-56.2479728,338.5 C-56.6630918,338.5 -57,338.164 -57,337.75 C-57,337.336 -56.6630918,337 -56.2479728,337 L-34.7520272,337 C-34.3369082,337 -34,337.336 -34,337.75 C-34,338.164 -34.3369082,338.5 -34.7520272,338.5 L-56.2479728,338.5 Z M15.2482172,337 C15.6632013,337 16,337.336 16,337.75 C16,338.164 15.6632013,338.5 15.2482172,338.5 L-18.2482172,338.5 C-18.6632013,338.5 -19,338.164 -19,337.75 C-19,337.336 -18.6632013,337 -18.2482172,337 L15.2482172,337 Z M167.248802,337 C167.662112,337 168,337.336 168,337.75 C168,338.164 167.662112,338.5 167.245785,338.5 L32.7542147,338.5 C32.3378882,338.5 32,338.164 32,337.75 C32,337.336 32.3378882,337 32.7542147,337 L167.248802,337 Z M217.25015,337 C217.661068,337 218,337.336 218,337.75 C218,338.164 217.664067,338.5 217.25015,338.5 L183.74985,338.5 C183.332933,338.5 183,338.164 183,337.75 C183,337.336 183.332933,337 183.74985,337 L217.25015,337 Z M-56.2479728,366.5 C-56.6630918,366.5 -57,366.164 -57,365.75 C-57,365.336 -56.6630918,365 -56.2479728,365 L-34.7520272,365 C-34.3369082,365 -34,365.336 -34,365.75 C-34,366.164 -34.3369082,366.5 -34.7520272,366.5 L-56.2479728,366.5 Z M15.2482172,365 C15.6632013,365 16,365.336 16,365.75 C16,366.164 15.6632013,366.5 15.2482172,366.5 L-18.2482172,366.5 C-18.6632013,366.5 -19,366.164 -19,365.75 C-19,365.336 -18.6632013,365 -18.2482172,365 L15.2482172,365 Z M167.248802,365 C167.662112,365 168,365.336 168,365.75 C168,366.164 167.662112,366.5 167.245785,366.5 L32.7542147,366.5 C32.3378882,366.5 32,366.164 32,365.75 C32,365.336 32.3378882,365 32.7542147,365 L167.248802,365 Z M217.25015,365 C217.661068,365 218,365.336 218,365.75 C218,366.164 217.664067,366.5 217.25015,366.5 L183.74985,366.5 C183.332933,366.5 183,366.164 183,365.75 C183,365.336 183.332933,365 183.74985,365 L217.25015,365 Z M-56.2479728,394.5 C-56.6630918,394.5 -57,394.164 -57,393.75 C-57,393.336 -56.6630918,393 -56.2479728,393 L-34.7520272,393 C-34.3369082,393 -34,393.336 -34,393.75 C-34,394.164 -34.3369082,394.5 -34.7520272,394.5 L-56.2479728,394.5 Z M15.2482172,393 C15.6632013,393 16,393.336 16,393.75 C16,394.164 15.6632013,394.5 15.2482172,394.5 L-18.2482172,394.5 C-18.6632013,394.5 -19,394.164 -19,393.75 C-19,393.336 -18.6632013,393 -18.2482172,393 L15.2482172,393 Z M167.248802,393 C167.662112,393 168,393.336 168,393.75 C168,394.164 167.662112,394.5 167.245785,394.5 L32.7542147,394.5 C32.3378882,394.5 32,394.164 32,393.75 C32,393.336 32.3378882,393 32.7542147,393 L167.248802,393 Z M217.25015,393 C217.661068,393 218,393.336 218,393.75 C218,394.164 217.664067,394.5 217.25015,394.5 L183.74985,394.5 C183.332933,394.5 183,394.164 183,393.75 C183,393.336 183.332933,393 183.74985,393 L217.25015,393 Z M-56.2479728,422.5 C-56.6630918,422.5 -57,422.164 -57,421.75 C-57,421.336 -56.6630918,421 -56.2479728,421 L-34.7520272,421 C-34.3369082,421 -34,421.336 -34,421.75 C-34,422.164 -34.3369082,422.5 -34.7520272,422.5 L-56.2479728,422.5 Z M16,421.75 C16,422.161 15.6632013,422.5 15.2482172,422.5 L-18.2482172,422.5 C-18.6632013,422.5 -19,422.164 -19,421.75 C-19,421.336 -18.6632013,421 -18.2482172,421 L15.2482172,421 C15.6632013,421 16,421.336 16,421.75 Z M168,421.75 C168,422.161 167.659103,422.5 167.242785,422.5 L32.754198,422.5 C32.3378807,422.5 32,422.164 32,421.75 C32,421.336 32.3378807,421 32.754198,421 L167.245802,421 C167.662119,421 168,421.336 168,421.75 Z M218,421.75 C218,422.161 217.661068,422.5 217.25015,422.5 L183.74985,422.5 C183.332933,422.5 183,422.164 183,421.75 C183,421.336 183.332933,421 183.74985,421 L217.25015,421 C217.664067,421 218,421.336 218,421.75 Z" transform="translate(0 -168)" style="mix-blend-mode:overlay"/>
</svg>
