<svg xmlns="http://www.w3.org/2000/svg" width="292" height="337" viewBox="0 0 292 337">
  <path fill="#242730" fill-rule="evenodd" d="M656.063817,332.496144 C656.584335,332.496144 657,332.928021 657,333.460154 C657,333.992288 656.58059,334.424165 656.063817,334.424165 L645.997972,334.424165 L645.997972,345.03599 C645.997972,345.568123 645.578561,346 645.061788,346 C644.545015,346 644.125605,345.568123 644.125605,345.03599 L644.125605,334.428021 L633.936183,334.428021 C633.41941,334.428021 633,333.996144 633,333.46401 C633,332.931877 633.41941,332.5 633.936183,332.5 L644.125605,332.5 L644.125605,322.96401 C644.125605,322.431877 644.545015,322 645.061788,322 C645.578561,322 645.997972,322.431877 645.997972,322.96401 L645.997972,332.496144 L656.063817,332.496144 Z M745.06367,332.496144 C745.580524,332.496144 746,332.928021 746,333.460154 C746,333.992288 745.580524,334.424165 745.06367,334.424165 L734.876404,334.424165 L734.876404,345.03599 C734.876404,345.568123 734.456929,346 733.940075,346 C733.423221,346 733.003745,345.568123 733.003745,345.03599 L733.003745,334.428021 L722.93633,334.428021 C722.419476,334.428021 722,333.996144 722,333.46401 C722,332.931877 722.419476,332.5 722.93633,332.5 L733.003745,332.5 L733.003745,322.96401 C733.003745,322.431877 733.423221,322 733.940075,322 C734.456929,322 734.876404,322.431877 734.876404,322.96401 L734.876404,332.496144 L745.06367,332.496144 Z M835.063817,332.496144 C835.584335,332.496144 836,332.928021 836,333.460154 C836,333.992288 835.584335,334.424165 835.063817,334.424165 L824.87814,334.424165 L824.87814,345.03599 C824.87814,345.568123 824.45873,346 823.941957,346 C823.425183,346 823.005773,345.568123 823.005773,345.03599 L823.005773,334.428021 L812.936183,334.428021 C812.41941,334.428021 812,333.996144 812,333.46401 C812,332.931877 812.41941,332.5 812.936183,332.5 L823.005773,332.5 L823.005773,322.96401 C823.005773,322.431877 823.425183,322 823.941957,322 C824.45873,322 824.87814,322.431877 824.87814,322.96401 L824.87814,332.496144 L835.063817,332.496144 Z M924.063817,332.496144 C924.58059,332.496144 925,332.928021 925,333.460154 C925,333.992288 924.58059,334.424165 924.063817,334.424165 L913.87814,334.424165 L913.87814,345.03599 C913.87814,345.568123 913.462475,346 912.941957,346 C912.421439,346 912.005773,345.568123 912.005773,345.03599 L912.005773,334.428021 L901.936183,334.428021 C901.415665,334.428021 901,333.996144 901,333.46401 C901,332.931877 901.415665,332.5 901.936183,332.5 L912.005773,332.5 L912.005773,322.96401 C912.005773,322.431877 912.421439,322 912.941957,322 C913.462475,322 913.87814,322.431877 913.87814,322.96401 L913.87814,332.496144 L924.063817,332.496144 Z M656.063817,422.002028 C656.584335,422.002028 657,422.421439 657,422.938212 C657,423.454985 656.58059,423.874395 656.063817,423.874395 L645.997972,423.874395 L645.997972,434.063817 C645.997972,434.58059 645.578561,435 645.061788,435 C644.545015,435 644.125605,434.58059 644.125605,434.063817 L644.125605,423.874395 L633.936183,423.874395 C633.41941,423.874395 633,423.454985 633,422.938212 C633,422.421439 633.41941,422.002028 633.936183,422.002028 L644.125605,422.002028 L644.125605,411.936183 C644.125605,411.41941 644.545015,411 645.061788,411 C645.578561,411 645.997972,411.41941 645.997972,411.936183 L645.997972,422.002028 L656.063817,422.002028 Z M745.06367,422.002028 C745.580524,422.002028 746,422.421439 746,422.938212 C746,423.454985 745.580524,423.874395 745.06367,423.874395 L734.876404,423.874395 L734.876404,434.063817 C734.876404,434.58059 734.456929,435 733.940075,435 C733.423221,435 733.003745,434.58059 733.003745,434.063817 L733.003745,423.874395 L722.93633,423.874395 C722.419476,423.874395 722,423.454985 722,422.938212 C722,422.421439 722.419476,422.002028 722.93633,422.002028 L733.003745,422.002028 L733.003745,411.936183 C733.003745,411.41941 733.423221,411 733.940075,411 C734.456929,411 734.876404,411.41941 734.876404,411.936183 L734.876404,422.002028 L745.06367,422.002028 Z M835.063817,422.002028 C835.584335,422.002028 836,422.421439 836,422.938212 C836,423.454985 835.584335,423.874395 835.063817,423.874395 L824.87814,423.874395 L824.87814,434.063817 C824.87814,434.58059 824.45873,435 823.941957,435 C823.425183,435 823.005773,434.58059 823.005773,434.063817 L823.005773,423.874395 L812.936183,423.874395 C812.41941,423.874395 812,423.454985 812,422.938212 C812,422.421439 812.41941,422.002028 812.936183,422.002028 L823.005773,422.002028 L823.005773,411.936183 C823.005773,411.41941 823.425183,411 823.941957,411 C824.45873,411 824.87814,411.41941 824.87814,411.936183 L824.87814,422.002028 L835.063817,422.002028 Z M924.063817,422.002028 C924.58059,422.002028 925,422.421439 925,422.938212 C925,423.454985 924.58059,423.874395 924.063817,423.874395 L913.87814,423.874395 L913.87814,434.063817 C913.87814,434.58059 913.462475,435 912.941957,435 C912.421439,435 912.005773,434.58059 912.005773,434.063817 L912.005773,423.874395 L901.936183,423.874395 C901.415665,423.874395 901,423.454985 901,422.938212 C901,422.421439 901.415665,422.002028 901.936183,422.002028 L912.005773,422.002028 L912.005773,411.936183 C912.005773,411.41941 912.421439,411 912.941957,411 C913.462475,411 913.87814,411.41941 913.87814,411.936183 L913.87814,422.002028 L924.063817,422.002028 Z M677.931532,469.110314 C677.417327,469.110314 677,468.690903 677,468.17413 C677,467.657357 677.417327,467.237947 677.931532,467.237947 L688.070331,467.237947 L688.070331,456.936183 C688.070331,456.41941 688.487657,456 689.001863,456 C689.516069,456 689.933395,456.41941 689.933395,456.936183 L689.933395,467.237947 L700.068468,467.237947 C700.582673,467.237947 701,467.657357 701,468.17413 C701,468.690903 700.582673,469.110314 700.068468,469.110314 L689.933395,469.110314 L689.933395,479.063817 C689.933395,479.58059 689.516069,480 689.001863,480 C688.487657,480 688.070331,479.58059 688.070331,479.063817 L688.070331,469.110314 L677.931532,469.110314 Z M767.940881,469.110314 C767.421515,469.110314 767,468.690903 767,468.17413 C767,467.657357 767.421515,467.237947 767.940881,467.237947 L778.057237,467.237947 L778.057237,456.936183 C778.057237,456.41941 778.478752,456 778.998118,456 C779.517485,456 779.939,456.41941 779.939,456.936183 L779.939,467.237947 L790.059119,467.237947 C790.578485,467.237947 791,467.657357 791,468.17413 C791,468.690903 790.578485,469.110314 790.059119,469.110314 L779.939,469.110314 L779.939,479.063817 C779.939,479.58059 779.517485,480 778.998118,480 C778.478752,480 778.057237,479.58059 778.057237,479.063817 L778.057237,469.110314 L767.940881,469.110314 Z M856.940881,469.110314 C856.421515,469.110314 856,468.690903 856,468.17413 C856,467.657357 856.421515,467.237947 856.940881,467.237947 L867.061,467.237947 L867.061,456.936183 C867.061,456.41941 867.482515,456 868.001882,456 C868.521248,456 868.942763,456.41941 868.942763,456.936183 L868.942763,467.237947 L879.059119,467.237947 C879.582249,467.237947 880,467.657357 880,468.17413 C880,468.690903 879.582249,469.110314 879.059119,469.110314 L868.942763,469.110314 L868.942763,479.063817 C868.942763,479.58059 868.521248,480 868.001882,480 C867.482515,480 867.061,479.58059 867.061,479.063817 L867.061,469.110314 L856.940881,469.110314 Z M946.936183,469.110314 C946.41941,469.110314 946,468.690903 946,468.17413 C946,467.657357 946.41941,467.237947 946.936183,467.237947 L957.12186,467.237947 L957.12186,456.936183 C957.12186,456.41941 957.537525,456 958.058043,456 C958.578561,456 958.994227,456.41941 958.994227,456.936183 L958.994227,467.237947 L969.063817,467.237947 C969.584335,467.237947 970,467.657357 970,468.17413 C970,468.690903 969.584335,469.110314 969.063817,469.110314 L958.994227,469.110314 L958.994227,479.063817 C958.994227,479.58059 958.578561,480 958.058043,480 C957.537525,480 957.12186,479.58059 957.12186,479.063817 L957.12186,469.110314 L946.936183,469.110314 Z M656.063817,512.187578 C656.584335,512.187578 657,512.604969 657,513.119255 C657,513.63354 656.58059,514.050932 656.063817,514.050932 L645.997972,514.050932 L645.997972,524.068323 C645.997972,524.582609 645.578561,525 645.061788,525 C644.545015,525 644.125605,524.582609 644.125605,524.068323 L644.125605,514.050932 L633.936183,514.050932 C633.41941,514.050932 633,513.63354 633,513.119255 C633,512.604969 633.41941,512.187578 633.936183,512.187578 L644.125605,512.187578 L644.125605,501.931677 C644.125605,501.417391 644.545015,501 645.061788,501 C645.578561,501 645.997972,501.417391 645.997972,501.931677 L645.997972,512.187578 L656.063817,512.187578 Z M745.06367,512.187578 C745.580524,512.187578 746,512.604969 746,513.119255 C746,513.63354 745.580524,514.050932 745.06367,514.050932 L734.876404,514.050932 L734.876404,524.068323 C734.876404,524.582609 734.456929,525 733.940075,525 C733.423221,525 733.003745,524.582609 733.003745,524.068323 L733.003745,514.050932 L722.93633,514.050932 C722.419476,514.050932 722,513.63354 722,513.119255 C722,512.604969 722.419476,512.187578 722.93633,512.187578 L733.003745,512.187578 L733.003745,501.931677 C733.003745,501.417391 733.423221,501 733.940075,501 C734.456929,501 734.876404,501.417391 734.876404,501.931677 L734.876404,512.187578 L745.06367,512.187578 Z M835.063817,512.187578 C835.584335,512.187578 836,512.604969 836,513.119255 C836,513.63354 835.584335,514.050932 835.063817,514.050932 L824.87814,514.050932 L824.87814,524.068323 C824.87814,524.582609 824.45873,525 823.941957,525 C823.425183,525 823.005773,524.582609 823.005773,524.068323 L823.005773,514.050932 L812.936183,514.050932 C812.41941,514.050932 812,513.63354 812,513.119255 C812,512.604969 812.41941,512.187578 812.936183,512.187578 L823.005773,512.187578 L823.005773,501.931677 C823.005773,501.417391 823.425183,501 823.941957,501 C824.45873,501 824.87814,501.417391 824.87814,501.931677 L824.87814,512.187578 L835.063817,512.187578 Z M924.063817,512.187578 C924.58059,512.187578 925,512.604969 925,513.119255 C925,513.63354 924.58059,514.050932 924.063817,514.050932 L913.87814,514.050932 L913.87814,524.068323 C913.87814,524.582609 913.462475,525 912.941957,525 C912.421439,525 912.005773,524.582609 912.005773,524.068323 L912.005773,514.050932 L901.936183,514.050932 C901.415665,514.050932 901,513.63354 901,513.119255 C901,512.604969 901.415665,512.187578 901.936183,512.187578 L912.005773,512.187578 L912.005773,501.931677 C912.005773,501.417391 912.421439,501 912.941957,501 C913.462475,501 913.87814,501.417391 913.87814,501.931677 L913.87814,512.187578 L924.063817,512.187578 Z M677.931532,558.942763 C677.417327,558.942763 677,558.521248 677,558.001882 C677,557.482515 677.417327,557.061 677.931532,557.061 L688.070331,557.061 L688.070331,546.940881 C688.070331,546.421515 688.487657,546 689.001863,546 C689.516069,546 689.933395,546.421515 689.933395,546.940881 L689.933395,557.061 L700.068468,557.061 C700.582673,557.061 701,557.482515 701,558.001882 C701,558.521248 700.582673,558.942763 700.068468,558.942763 L689.933395,558.942763 L689.933395,569.059119 C689.933395,569.578485 689.516069,570 689.001863,570 C688.487657,570 688.070331,569.578485 688.070331,569.059119 L688.070331,558.942763 L677.931532,558.942763 Z M767.940881,558.942763 C767.421515,558.942763 767,558.521248 767,558.001882 C767,557.482515 767.421515,557.061 767.940881,557.061 L778.057237,557.061 L778.057237,546.940881 C778.057237,546.421515 778.478752,546 778.998118,546 C779.517485,546 779.939,546.421515 779.939,546.940881 L779.939,557.061 L790.059119,557.061 C790.578485,557.061 791,557.482515 791,558.001882 C791,558.521248 790.578485,558.942763 790.059119,558.942763 L779.939,558.942763 L779.939,569.059119 C779.939,569.578485 779.517485,570 778.998118,570 C778.478752,570 778.057237,569.578485 778.057237,569.059119 L778.057237,558.942763 L767.940881,558.942763 Z M856.940881,558.942763 C856.421515,558.942763 856,558.521248 856,558.001882 C856,557.482515 856.421515,557.061 856.940881,557.061 L867.061,557.061 L867.061,546.940881 C867.061,546.421515 867.482515,546 868.001882,546 C868.521248,546 868.942763,546.421515 868.942763,546.940881 L868.942763,557.061 L879.059119,557.061 C879.582249,557.061 880,557.482515 880,558.001882 C880,558.521248 879.582249,558.942763 879.059119,558.942763 L868.942763,558.942763 L868.942763,569.059119 C868.942763,569.578485 868.521248,570 868.001882,570 C867.482515,570 867.061,569.578485 867.061,569.059119 L867.061,558.942763 L856.940881,558.942763 Z M946.936183,558.942763 C946.41941,558.942763 946,558.521248 946,558.001882 C946,557.482515 946.41941,557.061 946.936183,557.061 L957.12186,557.061 L957.12186,546.940881 C957.12186,546.421515 957.537525,546 958.058043,546 C958.578561,546 958.994227,546.421515 958.994227,546.940881 L958.994227,557.061 L969.063817,557.061 C969.584335,557.061 970,557.482515 970,558.001882 C970,558.521248 969.584335,558.942763 969.063817,558.942763 L958.994227,558.942763 L958.994227,569.059119 C958.994227,569.578485 958.578561,570 958.058043,570 C957.537525,570 957.12186,569.578485 957.12186,569.059119 L957.12186,558.942763 L946.936183,558.942763 Z M656.063817,601.057237 C656.584335,601.057237 657,601.478752 657,601.998118 C657,602.517485 656.58059,602.939 656.063817,602.939 L645.997972,602.939 L645.997972,613.059119 C645.997972,613.578485 645.578561,614 645.061788,614 C644.545015,614 644.125605,613.578485 644.125605,613.059119 L644.125605,602.939 L633.936183,602.939 C633.41941,602.939 633,602.517485 633,601.998118 C633,601.478752 633.41941,601.057237 633.936183,601.057237 L644.125605,601.057237 L644.125605,590.940881 C644.125605,590.421515 644.545015,590 645.061788,590 C645.578561,590 645.997972,590.421515 645.997972,590.940881 L645.997972,601.057237 L656.063817,601.057237 Z M745.06367,601.057237 C745.580524,601.057237 746,601.478752 746,601.998118 C746,602.517485 745.580524,602.939 745.06367,602.939 L734.876404,602.939 L734.876404,613.059119 C734.876404,613.578485 734.456929,614 733.940075,614 C733.423221,614 733.003745,613.578485 733.003745,613.059119 L733.003745,602.939 L722.93633,602.939 C722.419476,602.939 722,602.517485 722,601.998118 C722,601.478752 722.419476,601.057237 722.93633,601.057237 L733.003745,601.057237 L733.003745,590.940881 C733.003745,590.421515 733.423221,590 733.940075,590 C734.456929,590 734.876404,590.421515 734.876404,590.940881 L734.876404,601.057237 L745.06367,601.057237 Z M835.063817,601.057237 C835.584335,601.057237 836,601.478752 836,601.998118 C836,602.517485 835.584335,602.939 835.063817,602.939 L824.87814,602.939 L824.87814,613.059119 C824.87814,613.578485 824.45873,614 823.941957,614 C823.425183,614 823.005773,613.578485 823.005773,613.059119 L823.005773,602.939 L812.936183,602.939 C812.41941,602.939 812,602.517485 812,601.998118 C812,601.478752 812.41941,601.057237 812.936183,601.057237 L823.005773,601.057237 L823.005773,590.940881 C823.005773,590.421515 823.425183,590 823.941957,590 C824.45873,590 824.87814,590.421515 824.87814,590.940881 L824.87814,601.057237 L835.063817,601.057237 Z M924.063817,601.057237 C924.58059,601.057237 925,601.478752 925,601.998118 C925,602.517485 924.58059,602.939 924.063817,602.939 L913.87814,602.939 L913.87814,613.059119 C913.87814,613.578485 913.462475,614 912.941957,614 C912.421439,614 912.005773,613.578485 912.005773,613.059119 L912.005773,602.939 L901.936183,602.939 C901.415665,602.939 901,602.517485 901,601.998118 C901,601.478752 901.415665,601.057237 901.936183,601.057237 L912.005773,601.057237 L912.005773,590.940881 C912.005773,590.421515 912.421439,590 912.941957,590 C913.462475,590 913.87814,590.421515 913.87814,590.940881 L913.87814,601.057237 L924.063817,601.057237 Z M677.931532,647.82032 C677.417327,647.82032 677,647.398871 677,646.879586 C677,646.360301 677.417327,645.938852 677.931532,645.938852 L688.070331,645.938852 L688.070331,635.940734 C688.070331,635.421449 688.487657,635 689.001863,635 C689.516069,635 689.933395,635.421449 689.933395,635.940734 L689.933395,645.938852 L700.068468,645.938852 C700.582673,645.938852 701,646.360301 701,646.879586 C701,647.398871 700.582673,647.82032 700.068468,647.82032 L689.933395,647.82032 L689.933395,658.059266 C689.933395,658.578551 689.516069,659 689.001863,659 C688.487657,659 688.070331,658.578551 688.070331,658.059266 L688.070331,647.82032 L677.931532,647.82032 Z M767.940881,647.82032 C767.421515,647.82032 767,647.398871 767,646.879586 C767,646.360301 767.421515,645.938852 767.940881,645.938852 L778.057237,645.938852 L778.057237,635.940734 C778.057237,635.421449 778.478752,635 778.998118,635 C779.517485,635 779.939,635.421449 779.939,635.940734 L779.939,645.938852 L790.059119,645.938852 C790.578485,645.938852 791,646.360301 791,646.879586 C791,647.398871 790.578485,647.82032 790.059119,647.82032 L779.939,647.82032 L779.939,658.059266 C779.939,658.578551 779.517485,659 778.998118,659 C778.478752,659 778.057237,658.578551 778.057237,658.059266 L778.057237,647.82032 L767.940881,647.82032 Z M856.940881,647.82032 C856.421515,647.82032 856,647.398871 856,646.879586 C856,646.360301 856.421515,645.938852 856.940881,645.938852 L867.061,645.938852 L867.061,635.940734 C867.061,635.421449 867.482515,635 868.001882,635 C868.521248,635 868.942763,635.421449 868.942763,635.940734 L868.942763,645.938852 L879.059119,645.938852 C879.582249,645.938852 880,646.360301 880,646.879586 C880,647.398871 879.582249,647.82032 879.059119,647.82032 L868.942763,647.82032 L868.942763,658.059266 C868.942763,658.578551 868.521248,659 868.001882,659 C867.482515,659 867.061,658.578551 867.061,658.059266 L867.061,647.82032 L856.940881,647.82032 Z M946.936183,647.82032 C946.41941,647.82032 946,647.398871 946,646.879586 C946,646.360301 946.41941,645.938852 946.936183,645.938852 L957.12186,645.938852 L957.12186,635.940734 C957.12186,635.421449 957.537525,635 958.058043,635 C958.578561,635 958.994227,635.421449 958.994227,635.940734 L958.994227,645.938852 L969.063817,645.938852 C969.584335,645.938852 970,646.360301 970,646.879586 C970,647.398871 969.584335,647.82032 969.063817,647.82032 L958.994227,647.82032 L958.994227,658.059266 C958.994227,658.578551 958.578561,659 958.058043,659 C957.537525,659 957.12186,658.578551 957.12186,658.059266 L957.12186,647.82032 L946.936183,647.82032 Z M689.001863,367 C689.516069,367 689.933395,367.423221 689.933395,367.93633 L689.933395,378.007491 L700.068468,378.007491 C700.582673,378.007491 701,378.426966 701,378.94382 C701,379.460674 700.582673,379.88015 700.068468,379.88015 L689.933395,379.88015 L689.933395,390.06367 C689.933395,390.580524 689.516069,391 689.001863,391 C688.487657,391 688.070331,390.580524 688.070331,390.06367 L688.070331,379.88015 L677.931532,379.88015 C677.417327,379.88015 677,379.460674 677,378.94382 C677,378.426966 677.417327,378.007491 677.931532,378.007491 L688.070331,378.007491 L688.070331,367.93633 C688.070331,367.419476 688.487657,367 689.001863,367 Z M779.001882,367 C779.521248,367 779.942763,367.423221 779.939,367.93633 L779.939,378.007491 L790.059119,378.007491 C790.578485,378.007491 791,378.426966 791,378.94382 C791,379.460674 790.578485,379.88015 790.059119,379.88015 L779.939,379.88015 L779.939,390.06367 C779.939,390.580524 779.517485,391 778.998118,391 C778.478752,391 778.057237,390.580524 778.057237,390.06367 L778.057237,379.88015 L767.940881,379.88015 C767.421515,379.88015 767,379.460674 767,378.94382 C767,378.426966 767.421515,378.007491 767.940881,378.007491 L778.061,378.007491 L778.061,367.93633 C778.061,367.419476 778.482515,367 779.001882,367 Z M868.001882,367 C868.521248,367 868.942763,367.423221 868.942763,367.93633 L868.942763,378.007491 L879.059119,378.007491 C879.582249,378.007491 880,378.426966 880,378.94382 C880,379.460674 879.582249,379.88015 879.059119,379.88015 L868.942763,379.88015 L868.942763,390.06367 C868.942763,390.580524 868.521248,391 868.001882,391 C867.482515,391 867.061,390.580524 867.061,390.06367 L867.061,379.88015 L856.940881,379.88015 C856.421515,379.88015 856,379.460674 856,378.94382 C856,378.426966 856.421515,378.007491 856.940881,378.007491 L867.061,378.007491 L867.061,367.93633 C867.061,367.419476 867.482515,367 868.001882,367 Z M958.058043,367 C958.574817,367 958.994227,367.423221 958.994227,367.93633 L958.994227,378.007491 L969.063817,378.007491 C969.584335,378.007491 970,378.426966 970,378.94382 C970,379.460674 969.584335,379.88015 969.063817,379.88015 L958.994227,379.88015 L958.994227,390.06367 C958.994227,390.580524 958.578561,391 958.058043,391 C957.537525,391 957.12186,390.580524 957.12186,390.06367 L957.12186,379.88015 L946.936183,379.88015 C946.41941,379.88015 946,379.460674 946,378.94382 C946,378.426966 946.41941,378.007491 946.936183,378.007491 L957.12186,378.007491 L957.12186,367.93633 C957.12186,367.419476 957.537525,367 958.058043,367 Z" transform="translate(-633 -322)"/>
</svg>
