<svg xmlns="http://www.w3.org/2000/svg" width="239" height="43" viewBox="0 0 239 43">
  <g fill="none" fill-rule="evenodd">
    <path fill="#302838" d="M6.771,17.342 C6.919,17.25 7.109,17.356 7.109,17.53 L7.109,23.336 L11.019,23.336 C11.142,23.336 11.24,23.435 11.24,23.558 L11.24,26.741 C11.24,26.863 11.142,26.962 11.019,26.962 L7.109,26.962 L7.109,37.299 C7.109,38.484 7.57,38.968 8.698,38.968 L10.857,38.968 C10.98,38.968 11.078,39.068 11.078,39.191 L11.078,42.454 C11.078,42.577 10.98,42.676 10.857,42.676 L7.559,42.676 C3.846,42.503 3.076,40.677 3.037,37.786 L3.037,26.962 L0.222,26.962 C0.1,26.962 4.4408921e-15,26.863 4.4408921e-15,26.741 L4.4408921e-15,23.558 C4.4408921e-15,23.435 0.1,23.336 0.222,23.336 L3.037,23.336 L3.037,19.784 L3.143,19.595 L6.771,17.342 Z M23.581,23.012 C27.873,23.012 30.335,25.902 30.335,30.941 L30.335,42.454 C30.335,42.577 30.236,42.676 30.113,42.676 L26.323,42.676 C26.2,42.676 26.101,42.577 26.101,42.454 L26.101,31.143 C26.101,28.181 24.845,26.679 22.366,26.679 C19.461,26.679 17.861,29.07 17.861,33.411 L17.861,42.454 C17.861,42.577 17.763,42.676 17.64,42.676 L13.971,42.676 C13.848,42.676 13.749,42.577 13.749,42.454 L13.749,15.377 C13.749,15.254 13.848,15.155 13.971,15.155 L17.64,15.155 C17.763,15.155 17.861,15.254 17.861,15.377 L17.861,26.639 C18.936,24.232 20.857,23.012 23.581,23.012 Z M37.036,26.238 C37.829,24.152 39.576,23.174 42.472,23.174 L42.97,23.174 C43.093,23.174 43.192,23.274 43.192,23.396 L43.192,27.065 C43.192,27.188 43.093,27.287 42.97,27.287 L41.257,27.287 C38.101,27.287 37.036,28.669 37.036,32.763 L37.036,42.454 C37.036,42.577 36.937,42.676 36.814,42.676 L33.065,42.676 C32.942,42.676 32.842,42.577 32.842,42.454 L32.842,23.558 C32.842,23.435 32.942,23.336 33.065,23.336 L36.814,23.336 C36.937,23.336 37.036,23.435 37.036,23.558 L37.036,26.238 Z M47.443,31.274 L57.564,31.274 C57.369,28.179 55.647,26.477 52.701,26.477 C49.882,26.477 47.877,28.311 47.443,31.274 Z M58.426,36.243 L61.737,37.542 C61.857,37.588 61.914,37.725 61.861,37.841 C60.739,40.245 58.287,43 52.943,43 C47.094,43 43.315,39.125 43.315,33.128 C43.315,27.172 47.207,23.012 52.781,23.012 C58.397,23.012 61.885,26.811 61.885,32.925 L61.885,34.274 C61.885,34.396 61.785,34.495 61.663,34.495 L47.518,34.495 C47.798,37.654 49.819,39.535 52.943,39.535 C55.568,39.535 57.225,38.527 58.143,36.366 C58.19,36.255 58.314,36.199 58.426,36.243 Z M67.562,31.274 L77.682,31.274 C77.487,28.179 75.765,26.477 72.818,26.477 C70,26.477 67.995,28.311 67.562,31.274 Z M78.544,36.243 L81.856,37.542 C81.974,37.588 82.032,37.725 81.978,37.841 C80.857,40.245 78.405,43 73.062,43 C67.212,43 63.432,39.125 63.432,33.128 C63.432,27.172 67.325,23.012 72.899,23.012 C78.515,23.012 82.003,26.811 82.003,32.925 L82.003,34.274 C82.003,34.396 81.903,34.495 81.781,34.495 L67.636,34.495 C67.916,37.654 69.937,39.535 73.062,39.535 C75.686,39.535 77.343,38.527 78.261,36.366 C78.308,36.255 78.432,36.199 78.544,36.243 Z M94.576,21.504 C94.576,16.972 95.91,15.359 99.865,15.115 L102.841,15.115 C102.963,15.115 103.063,15.214 103.063,15.337 L103.063,18.763 C103.063,18.885 102.963,18.985 102.841,18.985 L101.492,18.985 C99.042,18.985 98.729,19.088 98.729,21.788 L98.729,23.336 L102.395,23.336 C102.518,23.336 102.617,23.435 102.617,23.558 L102.617,26.741 C102.617,26.863 102.518,26.962 102.395,26.962 L98.729,26.962 L98.729,42.454 C98.729,42.577 98.63,42.676 98.507,42.676 L94.798,42.676 C94.675,42.676 94.576,42.577 94.576,42.454 L94.576,26.962 L91.598,26.962 C91.476,26.962 91.376,26.863 91.376,26.741 L91.376,23.558 C91.376,23.435 91.476,23.336 91.598,23.336 L94.576,23.336 L94.576,21.504 Z M105.347,42.676 C105.225,42.676 105.125,42.577 105.125,42.454 L105.125,23.558 C105.125,23.435 105.225,23.336 105.347,23.336 L109.138,23.336 C109.261,23.336 109.359,23.435 109.359,23.558 L109.359,42.454 C109.359,42.577 109.261,42.676 109.138,42.676 L105.347,42.676 Z M129.017,23.336 C129.172,23.336 129.278,23.49 129.225,23.635 L122.179,42.572 C122.147,42.659 122.064,42.716 121.971,42.716 L118.437,42.716 C118.345,42.716 118.263,42.66 118.23,42.574 L110.943,23.637 C110.887,23.492 110.994,23.336 111.151,23.336 L115.044,23.336 C115.139,23.336 115.223,23.395 115.254,23.484 L120.182,37.479 L124.872,23.487 C124.902,23.397 124.986,23.336 125.082,23.336 L129.017,23.336 Z M132.94,31.274 L143.059,31.274 C142.865,28.179 141.143,26.477 138.196,26.477 C135.378,26.477 133.373,28.311 132.94,31.274 Z M143.922,36.243 L147.233,37.542 C147.352,37.588 147.41,37.725 147.356,37.841 C146.235,40.245 143.783,43 138.44,43 C132.59,43 128.81,39.125 128.81,33.128 C128.81,27.172 132.703,23.012 138.277,23.012 C143.893,23.012 147.381,26.811 147.381,32.925 L147.381,34.274 C147.381,34.396 147.281,34.495 147.159,34.495 L133.014,34.495 C133.294,37.654 135.315,39.535 138.44,39.535 C141.063,39.535 142.721,38.527 143.639,36.366 C143.686,36.255 143.81,36.199 143.922,36.243 Z M163.444,17.342 C163.592,17.25 163.783,17.356 163.783,17.53 L163.783,23.336 L167.692,23.336 C167.815,23.336 167.914,23.435 167.914,23.558 L167.914,26.741 C167.914,26.863 167.815,26.962 167.692,26.962 L163.783,26.962 L163.783,37.299 C163.783,38.484 164.243,38.968 165.371,38.968 L167.53,38.968 C167.652,38.968 167.752,39.068 167.752,39.191 L167.752,42.454 C167.752,42.577 167.652,42.676 167.53,42.676 L164.233,42.676 C160.519,42.503 159.749,40.677 159.711,37.786 L159.711,26.962 L156.895,26.962 C156.773,26.962 156.673,26.863 156.673,26.741 L156.673,23.558 C156.673,23.435 156.773,23.336 156.895,23.336 L159.711,23.336 L159.711,19.784 L159.816,19.595 L163.444,17.342 Z M196.805,23.336 C196.954,23.336 197.061,23.481 197.017,23.624 L191.131,42.52 C191.103,42.613 191.017,42.676 190.919,42.676 L187.518,42.676 C187.419,42.676 187.332,42.611 187.305,42.517 L183.265,28.711 L179.265,42.516 C179.237,42.611 179.15,42.676 179.052,42.676 L175.65,42.676 C175.553,42.676 175.468,42.613 175.439,42.521 L169.474,23.625 C169.429,23.482 169.535,23.336 169.685,23.336 L173.583,23.336 C173.683,23.336 173.771,23.402 173.797,23.499 L177.357,36.406 L181.231,23.494 C181.259,23.4 181.345,23.336 181.443,23.336 L185.127,23.336 C185.225,23.336 185.312,23.4 185.34,23.494 L189.213,36.443 L192.733,23.5 C192.759,23.403 192.846,23.336 192.946,23.336 L196.805,23.336 Z M200.832,33.006 L200.832,33.168 C200.832,37.021 202.9,39.414 206.228,39.414 C209.63,39.414 211.744,37.021 211.744,33.168 L211.744,33.006 C211.744,29.053 209.661,26.598 206.309,26.598 C202.93,26.598 200.832,29.053 200.832,33.006 Z M206.309,23.012 C212.002,23.012 215.979,27.138 215.979,33.046 C215.979,38.814 211.877,43 206.228,43 C200.558,43 196.598,38.907 196.598,33.046 C196.598,27.138 200.591,23.012 206.309,23.012 Z M109.643,18.497 C109.643,19.792 108.568,20.842 107.242,20.842 C105.917,20.842 104.842,19.792 104.842,18.497 C104.842,17.201 105.917,16.151 107.242,16.151 C108.568,16.151 109.643,17.201 109.643,18.497 Z"></path>
    <path fill="#F07" d="M202.864,1.294 C204.222,-0.063 206.423,-0.063 207.78,1.294 C209.137,2.651 211.339,2.651 212.695,1.294 C214.053,-0.063 216.254,-0.063 217.611,1.294 C218.969,2.651 218.969,4.853 217.611,6.21 C216.254,7.567 216.254,9.769 217.611,11.126 C218.969,12.483 218.969,14.685 217.611,16.042 C216.254,17.399 214.053,17.399 212.695,16.042 C211.339,14.685 211.339,12.483 212.695,11.126 C214.053,9.769 214.053,7.567 212.695,6.21 C211.339,4.853 209.137,4.853 207.78,6.21 C206.423,7.567 204.222,7.567 202.864,6.21 C201.507,4.853 201.507,2.651 202.864,1.294"></path>
    <path fill="#F07" d="M222.527 16.042C221.849 15.363 220.959 15.024 220.069 15.024 219.18 15.024 218.29 15.363 217.611 16.042 218.29 15.363 218.629 14.473 218.629 13.584 218.629 12.694 218.29 11.805 217.611 11.126 218.29 11.805 219.18 12.144 220.069 12.144 220.959 12.144 221.849 11.805 222.527 11.126 221.849 11.805 221.509 12.694 221.509 13.584 221.509 14.473 221.849 15.363 222.527 16.042M222.527 6.21C221.849 5.532 220.959 5.192 220.069 5.192 219.18 5.192 218.29 5.532 217.611 6.21 218.29 5.532 218.629 4.642 218.629 3.752 218.629 2.863 218.29 1.973 217.611 1.294 218.29 1.973 219.18 2.312 220.069 2.312 220.959 2.312 221.849 1.973 222.527 1.294 221.849 1.973 221.509 2.863 221.509 3.752 221.509 4.642 221.849 5.532 222.527 6.21" opacity=".52"></path>
    <path fill="#D000D6" d="M232.359,11.126 C231.002,12.483 228.801,12.483 227.443,11.126 C226.086,9.769 226.086,7.567 227.443,6.21 C228.801,4.853 231.002,4.853 232.359,6.21 C233.716,7.567 233.716,9.769 232.359,11.126 M237.275,6.21 C238.632,4.853 238.632,2.651 237.275,1.294 C235.918,-0.063 233.716,-0.063 232.359,1.294 C231.002,2.651 228.801,2.651 227.443,1.294 C226.086,-0.063 223.885,-0.063 222.527,1.294 C221.17,2.651 221.17,4.853 222.527,6.21 C223.885,7.567 223.885,9.769 222.527,11.126 C221.17,12.483 221.17,14.685 222.527,16.042 C223.885,17.399 223.885,19.6 222.527,20.958 C221.17,22.315 221.17,24.516 222.527,25.873 C223.885,27.231 226.086,27.231 227.443,25.873 C228.801,24.516 228.801,22.315 227.443,20.958 C226.086,19.6 226.086,17.399 227.443,16.042 C228.801,14.685 231.002,14.685 232.359,16.042 C233.716,17.399 235.918,17.399 237.275,16.042 C238.632,14.685 238.632,12.483 237.275,11.126 C235.918,9.769 235.918,7.567 237.275,6.21"></path>
    <path fill="#D000D6" d="M232.359 25.873C231.681 25.195 230.791 24.855 229.901 24.855 229.012 24.855 228.122 25.195 227.443 25.873 228.122 25.195 228.462 24.305 228.462 23.416 228.462 22.526 228.122 21.636 227.443 20.958 228.122 21.636 229.012 21.976 229.901 21.976 230.791 21.976 231.681 21.636 232.359 20.958 231.002 22.315 231.002 24.516 232.359 25.873M237.275 20.958C236.596 20.279 235.707 19.94 234.817 19.94 233.927 19.94 233.038 20.279 232.359 20.958 233.716 19.6 233.716 17.399 232.359 16.042 233.038 16.72 233.927 17.06 234.817 17.06 235.707 17.06 236.596 16.72 237.275 16.042 235.918 17.399 235.918 19.6 237.275 20.958" opacity=".52"></path>
    <path fill="#007AFF" d="M232.359,20.958 C233.716,19.6 235.917,19.6 237.275,20.958 C238.632,22.315 238.632,24.516 237.275,25.873 C235.917,27.231 235.917,29.432 237.275,30.789 C238.632,32.147 238.632,34.348 237.275,35.705 C235.917,37.062 233.716,37.062 232.359,35.705 C231.002,34.348 231.002,32.147 232.359,30.789 C233.716,29.432 233.716,27.231 232.359,25.873 C231.002,24.516 231.002,22.315 232.359,20.958"></path>
  </g>
</svg>